<svg height="40" fill="none" xmlns="http://www.w3.org/2000/svg" width="40" viewBox="0 0 40 40">
    <path d="M7.19445 0C5.28636 0 3.45642 0.757984 2.1072 2.1072C0.757984 3.45642 0 5.28636 0 7.19445V20.5833C0 21.5281 0.18609 22.4637 0.547644 23.3365C0.909199 24.2094 1.43914 25.0025 2.1072 25.6706C3.45642 27.0198 5.28636 27.7778 7.19445 27.7778H20.23C20.6385 29.2207 21.5633 30.463 22.8283 31.2683C24.0933 32.0736 25.6103 32.3856 27.0904 32.145C28.5706 31.9044 29.9106 31.128 30.8555 29.9635C31.8003 28.799 32.2841 27.3278 32.2145 25.8298C32.145 24.3318 31.5272 22.9117 30.4785 21.8397C29.4299 20.7677 28.0237 20.1187 26.5277 20.0162C25.0316 19.9138 23.55 20.3649 22.365 21.2839C21.18 22.2029 20.3742 23.5255 20.1011 25H7.19445C6.02307 25 4.89968 24.5347 4.07139 23.7064C3.2431 22.8781 2.77778 21.7547 2.77778 20.5833V7.19445C2.77778 6.02307 3.2431 4.89968 4.07139 4.07139C4.89968 3.2431 6.02307 2.77778 7.19445 2.77778H20.5833C21.7547 2.77778 22.8781 3.2431 23.7064 4.07139C24.5347 4.89968 25 6.02307 25 7.19445V7.5C25 7.86836 25.1463 8.22163 25.4068 8.48209C25.6673 8.74256 26.0205 8.88889 26.3889 8.88889C26.7572 8.88889 27.1105 8.74256 27.371 8.48209C27.6315 8.22163 27.7778 7.86836 27.7778 7.5V7.19445C27.7778 6.24966 27.5917 5.31412 27.2301 4.44125C26.8686 3.56838 26.3386 2.77527 25.6706 2.1072C25.0025 1.43914 24.2094 0.909199 23.3365 0.547644C22.4637 0.18609 21.5281 0 20.5833 0H7.19445ZM12.2222 33.0556V32.5C12.2222 32.1316 12.3686 31.7784 12.629 31.5179C12.8895 31.2574 13.2428 31.1111 13.6111 31.1111C13.9795 31.1111 14.3327 31.2574 14.5932 31.5179C14.8537 31.7784 15 32.1316 15 32.5V33.0556C15 34.1606 15.439 35.2204 16.2204 36.0018C17.0018 36.7832 18.0616 37.2222 19.1667 37.2222H33.0556C34.1606 37.2222 35.2204 36.7832 36.0018 36.0018C36.7832 35.2204 37.2222 34.1606 37.2222 33.0556V19.1667C37.2222 18.0616 36.7832 17.0018 36.0018 16.2204C35.2204 15.439 34.1606 15 33.0556 15H19.9C19.6198 16.4963 18.7914 17.8343 17.5769 18.7521C16.3624 19.67 14.8491 20.1016 13.3331 19.9627C11.8171 19.8237 10.4075 19.1242 9.38007 18.0008C8.35262 16.8775 7.78127 15.4112 7.77778 13.8889C7.77636 12.4128 8.30922 10.9862 9.27791 9.87244C10.2466 8.75872 11.5857 8.03325 13.0477 7.83006C14.5097 7.62688 15.9958 7.95971 17.2315 8.76706C18.4672 9.57441 19.3689 10.8017 19.77 12.2222H33.0556C34.8973 12.2222 36.6637 12.9539 37.966 14.2562C39.2684 15.5585 40 17.3249 40 19.1667V33.0556C40 34.8973 39.2684 36.6637 37.966 37.966C36.6637 39.2684 34.8973 40 33.0556 40H19.1667C17.3249 40 15.5585 39.2684 14.2562 37.966C12.9539 36.6637 12.2222 34.8973 12.2222 33.0556Z" fill="#6200EE"/>
    
</svg>