<svg width="32" height="33" viewBox="0 0 32 33" fill="none" xmlns="http://www.w3.org/2000/svg">
<path d="M8.33333 4.5C7.18406 4.5 6.08186 4.95655 5.2692 5.7692C4.45655 6.58186 4 7.68406 4 8.83333V24.1667C4 25.3159 4.45655 26.4181 5.2692 27.2308C6.08186 28.0435 7.18406 28.5 8.33333 28.5H23.6667C24.8159 28.5 25.9181 28.0435 26.7308 27.2308C27.5435 26.4181 28 25.3159 28 24.1667V8.83333C28 7.68406 27.5435 6.58186 26.7308 5.7692C25.9181 4.95655 24.8159 4.5 23.6667 4.5H8.33333ZM6 11.8333H26V24.1667C26 24.7855 25.7542 25.379 25.3166 25.8166C24.879 26.2542 24.2855 26.5 23.6667 26.5H8.33333C7.71449 26.5 7.121 26.2542 6.68342 25.8166C6.24583 25.379 6 24.7855 6 24.1667V11.8333ZM21.6667 19.8333C21.2246 19.8333 20.8007 20.0089 20.4882 20.3215C20.1756 20.6341 20 21.058 20 21.5C20 21.942 20.1756 22.366 20.4882 22.6785C20.8007 22.9911 21.2246 23.1667 21.6667 23.1667C22.1087 23.1667 22.5326 22.9911 22.8452 22.6785C23.1577 22.366 23.3333 21.942 23.3333 21.5C23.3333 21.058 23.1577 20.6341 22.8452 20.3215C22.5326 20.0089 22.1087 19.8333 21.6667 19.8333ZM16 19.8333C15.558 19.8333 15.134 20.0089 14.8215 20.3215C14.5089 20.6341 14.3333 21.058 14.3333 21.5C14.3333 21.942 14.5089 22.366 14.8215 22.6785C15.134 22.9911 15.558 23.1667 16 23.1667C16.442 23.1667 16.866 22.9911 17.1785 22.6785C17.4911 22.366 17.6667 21.942 17.6667 21.5C17.6667 21.058 17.4911 20.6341 17.1785 20.3215C16.866 20.0089 16.442 19.8333 16 19.8333ZM21.6667 14.5C21.2246 14.5 20.8007 14.6756 20.4882 14.9882C20.1756 15.3007 20 15.7246 20 16.1667C20 16.6087 20.1756 17.0326 20.4882 17.3452C20.8007 17.6577 21.2246 17.8333 21.6667 17.8333C22.1087 17.8333 22.5326 17.6577 22.8452 17.3452C23.1577 17.0326 23.3333 16.6087 23.3333 16.1667C23.3333 15.7246 23.1577 15.3007 22.8452 14.9882C22.5326 14.6756 22.1087 14.5 21.6667 14.5ZM16 14.5C15.558 14.5 15.134 14.6756 14.8215 14.9882C14.5089 15.3007 14.3333 15.7246 14.3333 16.1667C14.3333 16.6087 14.5089 17.0326 14.8215 17.3452C15.134 17.6577 15.558 17.8333 16 17.8333C16.442 17.8333 16.866 17.6577 17.1785 17.3452C17.4911 17.0326 17.6667 16.6087 17.6667 16.1667C17.6667 15.7246 17.4911 15.3007 17.1785 14.9882C16.866 14.6756 16.442 14.5 16 14.5ZM10.3333 14.5C9.89131 14.5 9.46738 14.6756 9.15482 14.9882C8.84226 15.3007 8.66667 15.7246 8.66667 16.1667C8.66667 16.6087 8.84226 17.0326 9.15482 17.3452C9.46738 17.6577 9.89131 17.8333 10.3333 17.8333C10.7754 17.8333 11.1993 17.6577 11.5118 17.3452C11.8244 17.0326 12 16.6087 12 16.1667C12 15.7246 11.8244 15.3007 11.5118 14.9882C11.1993 14.6756 10.7754 14.5 10.3333 14.5ZM8.33333 6.5H23.6667C24.9547 6.5 26 7.54533 26 8.83333V9.83333H6V8.83333C6 7.54533 7.04533 6.5 8.33333 6.5Z" fill="#6200EE"/>
<path d="M9.15482 20.3215C9.46738 20.0089 9.89131 19.8333 10.3333 19.8333C10.7754 19.8333 11.1993 20.0089 11.5118 20.3215C11.8244 20.6341 12 21.058 12 21.5C12 21.942 11.8244 22.366 11.5118 22.6785C11.1993 22.9911 10.7754 23.1667 10.3333 23.1667C9.89131 23.1667 9.46738 22.9911 9.15482 22.6785C8.84226 22.366 8.66667 21.942 8.66667 21.5C8.66667 21.058 8.84226 20.6341 9.15482 20.3215Z" fill="#6200EE"/>
</svg>