<svg width="32" height="32" viewBox="0 0 32 32" fill="none" xmlns="http://www.w3.org/2000/svg">
<rect width="32" height="32" rx="16" fill="#03DAC5"/>
<path d="M8.5 20.5504V23.0834C8.5 23.3167 8.68331 23.5 8.91661 23.5H11.4496C11.5579 23.5 11.6662 23.4583 11.7412 23.375L20.84 14.2846L17.7154 11.16L8.62498 20.2504C8.54166 20.3338 8.5 20.4338 8.5 20.5504ZM23.2563 11.8682C23.3336 11.7912 23.3949 11.6996 23.4367 11.5988C23.4785 11.498 23.5 11.39 23.5 11.2808C23.5 11.1717 23.4785 11.0636 23.4367 10.9628C23.3949 10.8621 23.3336 10.7705 23.2563 10.6934L21.3066 8.74367C21.2295 8.66643 21.1379 8.60515 21.0372 8.56333C20.9364 8.52152 20.8283 8.5 20.7192 8.5C20.6101 8.5 20.502 8.52152 20.4012 8.56333C20.3004 8.60515 20.2088 8.66643 20.1318 8.74367L18.607 10.2685L21.7315 13.393L23.2563 11.8682Z" fill="#3700B3"/>
</svg>
