<svg width="32" height="33" viewBox="0 0 32 33" fill="none" xmlns="http://www.w3.org/2000/svg">
    <path d="M15.996 4.50005C13.5385 4.50005 11.297 5.46221 9.66141 7.12048C8.06576 8.74075 7.08198 10.9951 7.002 13.5875L7 13.6256V13.6656C7.11397 16.138 8.30971 18.3143 10.4732 20.5747L11.8769 26.4577L11.8909 26.5017C12.0909 27.0958 12.4748 27.5899 12.9587 27.9359C13.4606 28.296 14.0744 28.5 14.7243 28.5L17.4917 28.492L17.5337 28.488C18.1511 28.4358 18.7375 28.1949 19.2133 27.7979C19.6752 27.4098 20.0251 26.8777 20.1731 26.2496L21.7647 20.1486C23.8323 18.1603 25 15.8599 25 13.2735C24.9985 12.115 24.7641 10.9687 24.3106 9.90266C23.8572 8.83666 23.194 7.87282 22.3606 7.06847C20.6556 5.41399 18.3713 4.49219 15.996 4.50005ZM11.0871 8.52471C11.7285 7.87602 12.4934 7.36249 13.3365 7.01445C14.1796 6.66642 15.0839 6.49094 15.996 6.49838C17.8506 6.48994 19.6348 7.20792 20.9669 8.49871C21.6089 9.11688 22.1198 9.85808 22.4692 10.6781C22.8185 11.4981 22.9992 12.3801 23.0004 13.2715C23.0004 15.2538 22.0946 17.1241 20.1931 18.8824L19.9771 19.0825L19.0853 22.501H12.9887L12.2908 19.5725L12.0969 19.3725C10.0013 17.2441 9.09753 15.4599 8.99956 13.6136C9.07554 11.5172 9.86736 9.76292 11.0871 8.52671V8.52471ZM13.4666 24.5013H18.5654L18.2355 25.7555L18.2295 25.7816C18.1844 25.97 18.0791 26.1385 17.9296 26.2616C17.7777 26.3886 17.5922 26.4685 17.3957 26.4917L14.7223 26.5017C14.5074 26.5024 14.2977 26.4359 14.1224 26.3116C13.9765 26.2089 13.8639 26.0656 13.7985 25.8996L13.4646 24.5013H13.4666Z" fill="rgba(0, 0, 0, 0.6)"/>
    <path d="M16.5053 13.9C15.6102 13.6 14.7593 13.3556 14.7593 12.6278C14.7593 11.9444 15.4997 11.7 15.9583 11.7C16.4942 11.7 16.8257 11.9556 17.0136 12.2C17.1738 12.4111 17.4501 12.4944 17.6932 12.3944C18.0358 12.25 18.1518 11.8167 17.9197 11.5167C17.6545 11.1611 17.2015 10.7778 16.4721 10.6556V10.0556C16.4721 9.75 16.2235 9.5 15.9196 9.5C15.6157 9.5 15.3671 9.75 15.3671 10.0556V10.6722C14.6101 10.8222 13.6045 11.4444 13.6045 12.65C13.6045 14.0778 14.8808 14.5167 15.8257 14.8556C16.8699 15.2278 17.3341 15.5722 17.3341 16.2111C17.3341 16.9667 16.6434 17.2778 16.0246 17.2778C15.2455 17.2778 14.8256 16.7611 14.6101 16.3556C14.4775 16.0944 14.157 15.9944 13.8918 16.1056L13.8587 16.1222C13.5493 16.25 13.4111 16.6111 13.5603 16.9111C13.831 17.4389 14.3504 18.0833 15.3671 18.3167V18.9444C15.3671 19.25 15.6157 19.5 15.9196 19.5C16.2235 19.5 16.4721 19.25 16.4721 18.9444V18.3444C16.5053 18.3389 18.4999 18.1167 18.4999 16.1944C18.5109 14.9556 17.6987 14.3167 16.5053 13.9Z" fill="rgba(0, 0, 0, 0.6)"/>
</svg>