<svg width="56" height="56" viewBox="0 0 56 56" fill="none" xmlns="http://www.w3.org/2000/svg">
    <rect width="56" height="56" rx="13" fill="#6200EE"/>
    <path d="M23.5623 39.1155C27.2925 39.1155 30.3163 36.0916 30.3163 32.3615C30.3163 28.6314 27.2925 25.6075 23.5623 25.6075C19.8322 25.6075 16.8083 28.6314 16.8083 32.3615C16.8083 36.0916 19.8322 39.1155 23.5623 39.1155Z" fill="white"/>
    <path d="M24.4614 31.8477C24.3811 31.8193 24.3044 31.7919 24.2309 31.7656V30.0736C24.3983 30.1375 24.5155 30.2286 24.5769 30.3162C24.7752 30.5988 25.165 30.6671 25.4476 30.4689C25.7301 30.2706 25.7985 29.8808 25.6003 29.5982C25.3327 29.217 24.8541 28.8968 24.2309 28.7828V28.7136C24.2309 28.3685 23.9511 28.0886 23.6059 28.0886C23.2608 28.0886 22.9809 28.3685 22.9809 28.7136V28.8284C22.9088 28.8454 22.8358 28.865 22.7619 28.8872C22.0295 29.1078 21.4768 29.8184 21.4176 30.6154C21.3591 31.4041 21.7782 32.0891 22.5386 32.4477C22.6376 32.4944 22.7892 32.5577 22.9809 32.6331V34.6861C22.7314 34.6009 22.5065 34.4687 22.3559 34.2818C22.1394 34.0129 21.7459 33.9706 21.4771 34.1871C21.2083 34.4036 21.1659 34.7971 21.3824 35.0659C21.7928 35.5754 22.3922 35.8541 22.9809 35.9781V36.0092C22.9809 36.3544 23.2608 36.6342 23.6059 36.6342C23.9459 36.6342 24.2226 36.3626 24.2307 36.0244C25.2681 35.8705 26.0002 35.2023 26.1168 34.2842C26.2493 33.2411 25.5686 32.2391 24.4614 31.8477ZM22.6642 30.7079C22.6809 30.4829 22.8086 30.2674 22.9809 30.1521V31.2692C22.753 31.1341 22.6466 30.9456 22.6642 30.7079ZM24.8768 34.1268C24.8378 34.4342 24.607 34.6536 24.2309 34.7517V33.1051C24.7305 33.3551 24.9191 33.7937 24.8768 34.1268Z" fill="#6200EE"/>
    <path d="M43.375 32.3186H35.1231C35.0829 30.5216 34.2602 28.0503 32.8518 25.5066C31.6604 23.3548 30.1911 21.4025 28.7136 19.9875C28.8905 19.8771 29.0082 19.6807 29.0082 19.4569V16.0443C29.0082 15.6991 28.7284 15.4193 28.3832 15.4193H27.5259C27.554 15.3825 27.5815 15.3465 27.6081 15.3119C28.2449 14.4806 28.9666 13.5383 29.1791 12.7972C29.2331 12.6085 29.1954 12.4055 29.0773 12.2489C28.9592 12.0922 28.7744 12 28.5782 12H18.5464C18.3502 12 18.1654 12.0922 18.0473 12.2488C17.9293 12.4055 17.8916 12.6086 17.9456 12.7971C18.158 13.5382 18.8797 14.4804 19.5164 15.3116C19.543 15.3463 19.5706 15.3824 19.5988 15.4192H18.7414C18.3963 15.4192 18.1164 15.6991 18.1164 16.0442V19.4568C18.1164 19.683 18.2366 19.8811 18.4166 19.9909C16.9393 21.4081 15.4688 23.3639 14.2751 25.5199C12.8293 28.1311 12 30.6589 12 32.4554C12 35.7088 13.1561 38.6547 15.2553 40.7505C17.3542 42.8459 20.3044 44 23.5623 44C27.1698 44 30.3021 42.6255 32.4094 40.1724V43.375C32.4094 43.7201 32.6893 44 33.0344 44H43.375C43.7201 44 44 43.7201 44 43.375V32.9436C44 32.5984 43.7201 32.3186 43.375 32.3186ZM33.6594 37.0457H42.75V39.2728H33.6594V37.0457ZM42.75 35.7957H33.6594V33.5685H42.75V35.7957ZM20.5088 14.5516C20.2081 14.1591 19.8423 13.6814 19.5615 13.25H27.5632C27.2824 13.6815 26.9164 14.1592 26.6158 14.5517C26.33 14.9248 26.1216 15.1992 25.9768 15.4193H21.1479C21.003 15.1992 20.7946 14.9248 20.5088 14.5516ZM19.3664 16.6693H27.7583V18.8319H19.3664V16.6693ZM23.5623 42.75C17.4906 42.75 13.25 38.5168 13.25 32.4554C13.25 30.8876 14.042 28.5213 15.3686 26.1254C16.7308 23.6653 18.4571 21.4932 20.1046 20.1661C20.1366 20.1404 20.1652 20.1121 20.1908 20.0818H24.3997L23.4908 21.6237C23.3154 21.9211 23.4144 22.3042 23.7117 22.4795C24.0091 22.6549 24.3923 22.5558 24.5675 22.2586L25.2904 21.0323L26.8426 24.4621C26.9471 24.6929 27.1744 24.8296 27.4124 24.8296C27.4986 24.8295 27.5861 24.8116 27.6697 24.7738C27.9841 24.6314 28.1238 24.2611 27.9814 23.9467L26.2323 20.0818H26.9411C26.9664 20.1116 26.9948 20.1395 27.0264 20.1649C28.6745 21.4898 30.3992 23.6574 31.7582 26.112C33.0654 28.4731 33.8307 30.7233 33.8727 32.3185H33.0343C32.6892 32.3185 32.4093 32.5984 32.4093 32.9435V38.0404C30.6175 41.0339 27.3948 42.75 23.5623 42.75ZM42.75 42.75H33.6594V40.5228H42.75V42.75Z" fill="white"/>
</svg>