<svg width="56" height="56" viewBox="0 0 56 56" fill="none" xmlns="http://www.w3.org/2000/svg">
    <path d="M28 43.0044C31.3137 43.0044 34 40.3181 34 37.0044C34 33.6907 31.3137 31.0044 28 31.0044C24.6863 31.0044 22 33.6907 22 37.0044C22 40.3181 24.6863 43.0044 28 43.0044Z" fill="#6200EE" fill-opacity="0.6"/>
    <path d="M29.2907 36.9525C29.2121 36.9239 29.1367 36.8962 29.0646 36.8694V35.1208C29.2229 35.1864 29.3343 35.277 29.3936 35.3642C29.5994 35.6669 30.0041 35.7399 30.2972 35.5275C30.5904 35.3151 30.6612 34.8977 30.4554 34.595C30.183 34.1944 29.697 33.8576 29.0646 33.7355V33.6738C29.0646 33.3042 28.7741 33.0044 28.4159 33.0044C28.0578 33.0044 27.7673 33.3042 27.7673 33.6738V33.784C27.6969 33.8014 27.6256 33.8212 27.5535 33.8437C26.8034 34.0768 26.2372 34.8278 26.1766 35.67C26.1167 36.5039 26.5458 37.2279 27.3246 37.607C27.4242 37.6554 27.5758 37.7209 27.7672 37.7986V39.9272C27.5222 39.8383 27.3022 39.7027 27.1539 39.5127C26.9291 39.2248 26.5208 39.1794 26.2418 39.4113C25.9628 39.6433 25.9188 40.0647 26.1435 40.3527C26.5608 40.8873 27.1689 41.1809 27.7672 41.3127V41.335C27.7672 41.7046 28.0576 42.0044 28.4158 42.0044C28.7652 42.0044 29.05 41.7193 29.0639 41.3622C30.1197 41.1967 30.8642 40.4922 30.9832 39.5252C31.1188 38.4235 30.4228 37.3656 29.2907 36.9525ZM27.4704 35.769C27.4864 35.5456 27.6051 35.3312 27.7672 35.2094V36.334C27.5531 36.1958 27.4534 36.0062 27.4704 35.769ZM29.6964 39.3566C29.6579 39.6691 29.4325 39.8936 29.0646 39.9973V38.3066C29.5536 38.5678 29.7383 39.0156 29.6964 39.3566Z" fill="white"/>
    <path d="M42.9088 43.0457L29.2073 20.3237C29.0965 20.1399 28.9009 20.0281 28.6905 20.0281H28.608V17.7568H33.2594C33.468 17.7568 33.662 17.6469 33.7734 17.4656C33.8848 17.2844 33.8981 17.057 33.8085 16.8634L32.8901 14.8784L33.8085 12.8934C33.8981 12.6998 33.8848 12.4725 33.7734 12.2912C33.662 12.1099 33.468 12 33.2594 12H28C27.6642 12 27.3919 12.2799 27.3919 12.625V20.028H27.3095C27.099 20.028 26.9035 20.1399 26.7926 20.3237L13.0912 43.0457C12.975 43.2384 12.9695 43.4808 13.0768 43.679C13.1841 43.8771 13.3874 44 13.608 44H42.392C42.6127 44 42.816 43.8771 42.9233 43.679C43.0305 43.4808 43.025 43.2384 42.9088 43.0457ZM28.608 13.25H32.2969L31.6677 14.61C31.589 14.7799 31.589 14.977 31.6677 15.1469L32.2969 16.5068H28.608V13.25ZM27.6479 21.278H28.352L31.6518 26.7502L30.3088 28.7466L27.8044 25.7842C27.6129 25.5577 27.2918 25.5029 27.0395 25.6541L25.5746 26.5309L25.0073 25.657L27.6479 21.278ZM14.7003 42.75L24.3034 26.8246L24.8806 27.7137C25.0591 27.9885 25.4147 28.0732 25.6925 27.9069L27.2166 26.9946L29.9046 30.1742C30.0204 30.3111 30.188 30.3892 30.3635 30.3892C30.3747 30.3892 30.3859 30.3889 30.3971 30.3882C30.5847 30.3776 30.7569 30.2784 30.8638 30.1196L32.3508 27.9091L41.2997 42.75H14.7003Z" fill="#6200EE" stroke="#6200EE" stroke-width="0.6"/>
    <rect x="0.75" y="0.75" width="54.5" height="54.5" rx="12.25" stroke="black" stroke-opacity="0.08" stroke-width="1.5"/>
</svg>