<svg width="32" height="33" viewBox="0 0 32 33" fill="none" xmlns="http://www.w3.org/2000/svg">
<path d="M26.5977 24.0859C26.0207 22.7387 25.1835 21.515 24.1325 20.4829C23.0848 19.4479 21.8436 18.6226 20.4776 18.0528C20.4654 18.0467 20.4532 18.0437 20.4409 18.0377C22.3464 16.6809 23.5851 14.4709 23.5851 11.9774C23.5851 7.84673 20.1901 4.5 16 4.5C11.8099 4.5 8.41494 7.84673 8.41494 11.9774C8.41494 14.4709 9.65363 16.6809 11.5591 18.0407C11.5468 18.0467 11.5346 18.0497 11.5224 18.0558C10.1522 18.6256 8.92265 19.4427 7.86747 20.4859C6.81752 21.5188 5.9804 22.7423 5.40233 24.0889C4.83444 25.4073 4.52816 26.8207 4.50008 28.2528C4.49926 28.2849 4.50499 28.317 4.51692 28.3469C4.52885 28.3769 4.54674 28.4042 4.56954 28.4272C4.59234 28.4503 4.61959 28.4686 4.64969 28.4811C4.67978 28.4936 4.7121 28.5 4.74476 28.5H6.57985C6.71442 28.5 6.82147 28.3945 6.82453 28.2648C6.8857 25.9372 7.83383 23.7573 9.50988 22.105C11.244 20.3955 13.5471 19.4548 16 19.4548C18.4529 19.4548 20.756 20.3955 22.4901 22.105C24.1662 23.7573 25.1143 25.9372 25.1755 28.2648C25.1785 28.3975 25.2856 28.5 25.4201 28.5H27.2552C27.2879 28.5 27.3202 28.4936 27.3503 28.4811C27.3804 28.4686 27.4077 28.4503 27.4305 28.4272C27.4533 28.4042 27.4712 28.3769 27.4831 28.3469C27.495 28.317 27.5007 28.2849 27.4999 28.2528C27.4693 26.8116 27.1665 25.4095 26.5977 24.0859ZM16 17.1633C14.5962 17.1633 13.2749 16.6236 12.2809 15.6437C11.2869 14.6638 10.7394 13.3613 10.7394 11.9774C10.7394 10.5935 11.2869 9.29095 12.2809 8.31106C13.2749 7.33116 14.5962 6.79146 16 6.79146C17.4038 6.79146 18.7251 7.33116 19.7191 8.31106C20.7131 9.29095 21.2606 10.5935 21.2606 11.9774C21.2606 13.3613 20.7131 14.6638 19.7191 15.6437C18.7251 16.6236 17.4038 17.1633 16 17.1633Z" fill="black" fill-opacity="0.6"/>
</svg>