<svg width="32" height="32" viewBox="0 0 32 32" fill="none" xmlns="http://www.w3.org/2000/svg">
    <path d="M5.75556 0C4.22909 0 2.76514 0.606387 1.68576 1.68576C0.606387 2.76514 0 4.22909 0 5.75556V16.4667C0 17.2225 0.148872 17.9709 0.438115 18.6692C0.727359 19.3675 1.15131 20.002 1.68576 20.5365C2.76514 21.6158 4.22909 22.2222 5.75556 22.2222H16.184C16.5108 23.3765 17.2506 24.3704 18.2626 25.0146C19.2746 25.6588 20.4882 25.9085 21.6723 25.716C22.8565 25.5235 23.9285 24.9024 24.6844 23.9708C25.4403 23.0392 25.8272 21.8622 25.7716 20.6639C25.716 19.4655 25.2217 18.3294 24.3828 17.4718C23.5439 16.6142 22.419 16.095 21.2221 16.013C20.0253 15.931 18.84 16.292 17.892 17.0271C16.944 17.7623 16.2994 18.8204 16.0809 20H5.75556C4.81846 20 3.91974 19.6277 3.25711 18.9651C2.59448 18.3025 2.22222 17.4038 2.22222 16.4667V5.75556C2.22222 4.81846 2.59448 3.91974 3.25711 3.25711C3.91974 2.59448 4.81846 2.22222 5.75556 2.22222H16.4667C17.4038 2.22222 18.3025 2.59448 18.9651 3.25711C19.6277 3.91974 20 4.81846 20 5.75556V6C20 6.29468 20.1171 6.5773 20.3254 6.78567C20.5338 6.99405 20.8164 7.11111 21.1111 7.11111C21.4058 7.11111 21.6884 6.99405 21.8968 6.78567C22.1052 6.5773 22.2222 6.29468 22.2222 6V5.75556C22.2222 4.99973 22.0734 4.2513 21.7841 3.553C21.4949 2.8547 21.0709 2.22022 20.5365 1.68576C20.002 1.15131 19.3675 0.727359 18.6692 0.438115C17.9709 0.148872 17.2225 0 16.4667 0H5.75556ZM9.77778 26.4444V26C9.77778 25.7053 9.89484 25.4227 10.1032 25.2143C10.3116 25.006 10.5942 24.8889 10.8889 24.8889C11.1836 24.8889 11.4662 25.006 11.6746 25.2143C11.8829 25.4227 12 25.7053 12 26V26.4444C12 27.3285 12.3512 28.1763 12.9763 28.8015C13.6014 29.4266 14.4493 29.7778 15.3333 29.7778H26.4444C27.3285 29.7778 28.1763 29.4266 28.8015 28.8015C29.4266 28.1763 29.7778 27.3285 29.7778 26.4444V15.3333C29.7778 14.4493 29.4266 13.6014 28.8015 12.9763C28.1763 12.3512 27.3285 12 26.4444 12H15.92C15.6959 13.1971 15.0331 14.2674 14.0615 15.0017C13.0899 15.736 11.8793 16.0813 10.6665 15.9702C9.45369 15.859 8.32601 15.2993 7.50405 14.4007C6.6821 13.502 6.22501 12.329 6.22222 11.1111C6.22108 9.93027 6.64737 8.78892 7.42233 7.89795C8.19728 7.00698 9.26853 6.4266 10.4381 6.26405C11.6077 6.1015 12.7966 6.36777 13.7852 7.01365C14.7737 7.65953 15.4951 8.64138 15.816 9.77778H26.4444C27.9179 9.77778 29.3309 10.3631 30.3728 11.405C31.4147 12.4468 32 13.8599 32 15.3333V26.4444C32 27.9179 31.4147 29.3309 30.3728 30.3728C29.3309 31.4147 27.9179 32 26.4444 32H15.3333C13.8599 32 12.4468 31.4147 11.405 30.3728C10.3631 29.3309 9.77778 27.9179 9.77778 26.4444Z"
          fill="#6200EE"/>
</svg>
