<svg width="291" height="40" viewBox="0 0 291 40" fill="none" xmlns="http://www.w3.org/2000/svg">
    <path d="M7.19445 0C5.28636 0 3.45642 0.757984 2.1072 2.1072C0.757984 3.45642 0 5.28636 0 7.19445V20.5833C0 21.5281 0.18609 22.4637 0.547644 23.3365C0.909199 24.2094 1.43914 25.0025 2.1072 25.6706C3.45642 27.0198 5.28636 27.7778 7.19445 27.7778H20.23C20.6385 29.2207 21.5633 30.463 22.8283 31.2683C24.0933 32.0736 25.6103 32.3856 27.0904 32.145C28.5706 31.9044 29.9106 31.128 30.8555 29.9635C31.8003 28.799 32.2841 27.3278 32.2145 25.8298C32.145 24.3318 31.5272 22.9117 30.4785 21.8397C29.4299 20.7677 28.0237 20.1187 26.5277 20.0162C25.0316 19.9138 23.55 20.3649 22.365 21.2839C21.18 22.2029 20.3742 23.5255 20.1011 25H7.19445C6.02307 25 4.89968 24.5347 4.07139 23.7064C3.2431 22.8781 2.77778 21.7547 2.77778 20.5833V7.19445C2.77778 6.02307 3.2431 4.89968 4.07139 4.07139C4.89968 3.2431 6.02307 2.77778 7.19445 2.77778H20.5833C21.7547 2.77778 22.8781 3.2431 23.7064 4.07139C24.5347 4.89968 25 6.02307 25 7.19445V7.5C25 7.86836 25.1463 8.22163 25.4068 8.48209C25.6673 8.74256 26.0205 8.88889 26.3889 8.88889C26.7572 8.88889 27.1105 8.74256 27.371 8.48209C27.6315 8.22163 27.7778 7.86836 27.7778 7.5V7.19445C27.7778 6.24966 27.5917 5.31412 27.2301 4.44125C26.8686 3.56838 26.3386 2.77527 25.6706 2.1072C25.0025 1.43914 24.2094 0.909199 23.3365 0.547644C22.4637 0.18609 21.5281 0 20.5833 0H7.19445ZM12.2222 33.0556V32.5C12.2222 32.1316 12.3686 31.7784 12.629 31.5179C12.8895 31.2574 13.2428 31.1111 13.6111 31.1111C13.9795 31.1111 14.3327 31.2574 14.5932 31.5179C14.8537 31.7784 15 32.1316 15 32.5V33.0556C15 34.1606 15.439 35.2204 16.2204 36.0018C17.0018 36.7832 18.0616 37.2222 19.1667 37.2222H33.0556C34.1606 37.2222 35.2204 36.7832 36.0018 36.0018C36.7832 35.2204 37.2222 34.1606 37.2222 33.0556V19.1667C37.2222 18.0616 36.7832 17.0018 36.0018 16.2204C35.2204 15.439 34.1606 15 33.0556 15H19.9C19.6198 16.4963 18.7914 17.8343 17.5769 18.7521C16.3624 19.67 14.8491 20.1016 13.3331 19.9627C11.8171 19.8237 10.4075 19.1242 9.38007 18.0008C8.35262 16.8775 7.78127 15.4112 7.77778 13.8889C7.77636 12.4128 8.30922 10.9862 9.27791 9.87244C10.2466 8.75872 11.5857 8.03325 13.0477 7.83006C14.5097 7.62688 15.9958 7.95971 17.2315 8.76706C18.4672 9.57441 19.3689 10.8017 19.77 12.2222H33.0556C34.8973 12.2222 36.6637 12.9539 37.966 14.2562C39.2684 15.5585 40 17.3249 40 19.1667V33.0556C40 34.8973 39.2684 36.6637 37.966 37.966C36.6637 39.2684 34.8973 40 33.0556 40H19.1667C17.3249 40 15.5585 39.2684 14.2562 37.966C12.9539 36.6637 12.2222 34.8973 12.2222 33.0556Z" fill="white"/>
    <path d="M58.248 11.424C55.168 11.424 52.924 13.118 52.924 15.714C52.924 18.024 54.244 19.344 57.544 20.378C59.854 21.082 60.448 21.61 60.448 22.82C60.448 24.162 59.392 24.91 57.83 24.91C56.268 24.91 55.058 24.338 53.936 23.392L52.286 25.218C53.54 26.45 55.388 27.352 57.918 27.352C61.614 27.352 63.814 25.394 63.814 22.6C63.814 19.784 62.054 18.64 59.304 17.76C56.818 16.99 56.246 16.55 56.246 15.494C56.246 14.416 57.148 13.844 58.468 13.844C59.7 13.844 60.756 14.24 61.834 15.12L63.374 13.338C62.054 12.106 60.514 11.424 58.248 11.424ZM72.2255 24.47C71.7415 24.734 71.3235 24.866 70.9055 24.866C70.1135 24.866 69.7395 24.426 69.7395 23.282V17.54H72.1155L72.4235 15.34H69.7395V12.414L66.6155 12.788V15.34H64.8775V17.54H66.6155V23.348C66.6155 25.944 67.8475 27.33 70.2675 27.352C71.3015 27.352 72.4455 27.044 73.3035 26.45L72.2255 24.47ZM83.8395 23.766V19.058C83.8395 16.418 82.4535 14.988 79.2195 14.988C77.8995 14.988 76.3595 15.274 74.9075 15.846L75.6115 17.936C76.7995 17.54 77.9215 17.32 78.6915 17.32C80.1655 17.32 80.7815 17.782 80.7815 19.234V19.806H79.4395C75.9855 19.806 74.0715 21.192 74.0715 23.744C74.0715 25.856 75.5235 27.352 77.8555 27.352C79.2415 27.352 80.5175 26.868 81.3535 25.592C81.8375 26.758 82.7175 27.198 84.0375 27.308L84.6975 25.24C84.1255 25.042 83.8395 24.712 83.8395 23.766ZM78.7135 25.108C77.7455 25.108 77.2175 24.514 77.2175 23.48C77.2175 22.204 78.0535 21.588 79.7475 21.588H80.7815V23.81C80.2975 24.646 79.6155 25.108 78.7135 25.108ZM93.2947 15.01C91.9527 15.01 90.8087 15.978 90.2587 17.606L89.9947 15.34H87.2667V27H90.3907V21.038C90.7867 19.124 91.4687 18.046 92.8987 18.046C93.2947 18.046 93.5807 18.112 93.9547 18.2L94.4607 15.186C94.0867 15.076 93.7127 15.01 93.2947 15.01ZM102.279 24.47C101.795 24.734 101.377 24.866 100.959 24.866C100.167 24.866 99.7934 24.426 99.7934 23.282V17.54H102.169L102.477 15.34H99.7934V12.414L96.6694 12.788V15.34H94.9314V17.54H96.6694V23.348C96.6694 25.944 97.9014 27.33 100.321 27.352C101.355 27.352 102.499 27.044 103.357 26.45L102.279 24.47ZM114.573 15.34H111.449V23.502C110.899 24.448 110.173 25.02 109.315 25.02C108.457 25.02 108.039 24.602 108.039 23.326V15.34H104.915V23.722C104.915 25.966 106.015 27.352 108.171 27.352C109.733 27.352 110.855 26.736 111.713 25.438L111.867 27H114.573V15.34ZM124.236 14.988C123.048 14.988 121.794 15.494 120.87 16.682L120.694 15.34H117.944V31.84L121.068 31.488V26.098C121.794 26.934 122.784 27.352 123.972 27.352C126.876 27.352 128.592 24.712 128.592 21.148C128.592 17.386 127.272 14.988 124.236 14.988ZM123.048 25.02C122.234 25.02 121.574 24.646 121.068 23.876V18.816C121.618 17.914 122.366 17.298 123.29 17.298C124.566 17.298 125.336 18.244 125.336 21.17C125.336 23.898 124.478 25.02 123.048 25.02ZM143.107 11.424C139.279 11.424 136.331 14.24 136.331 19.366C136.331 24.558 139.103 27.352 143.173 27.352C145.263 27.352 146.869 26.428 147.837 25.438L146.341 23.568C145.461 24.25 144.559 24.8 143.305 24.8C141.193 24.8 139.741 23.194 139.741 19.366C139.741 15.406 141.237 13.866 143.283 13.866C144.317 13.866 145.197 14.24 146.055 14.944L147.661 13.074C146.385 12.018 145.087 11.424 143.107 11.424ZM159.38 20.906C159.38 17.188 157.422 14.988 154.122 14.988C150.712 14.988 148.82 17.716 148.82 21.236C148.82 24.888 150.778 27.352 154.518 27.352C156.344 27.352 157.796 26.692 158.94 25.768L157.642 24.008C156.63 24.712 155.794 25.02 154.804 25.02C153.308 25.02 152.252 24.36 152.032 22.116H159.314C159.336 21.786 159.38 21.302 159.38 20.906ZM156.278 20.158H152.032C152.186 17.958 152.956 17.122 154.188 17.122C155.684 17.122 156.278 18.266 156.278 20.026V20.158ZM168.481 14.988C167.007 14.988 165.863 15.648 164.939 16.814L164.697 15.34H161.969V27H165.093V18.948C165.753 17.914 166.457 17.32 167.359 17.32C168.129 17.32 168.635 17.694 168.635 19.036V27H171.759V18.508C171.759 16.308 170.527 14.988 168.481 14.988ZM180.913 24.47C180.429 24.734 180.011 24.866 179.593 24.866C178.801 24.866 178.427 24.426 178.427 23.282V17.54H180.803L181.111 15.34H178.427V12.414L175.303 12.788V15.34H173.565V17.54H175.303V23.348C175.303 25.944 176.535 27.33 178.955 27.352C179.989 27.352 181.133 27.044 181.991 26.45L180.913 24.47ZM189.708 15.01C188.366 15.01 187.222 15.978 186.672 17.606L186.408 15.34H183.68V27H186.804V21.038C187.2 19.124 187.882 18.046 189.312 18.046C189.708 18.046 189.994 18.112 190.368 18.2L190.874 15.186C190.5 15.076 190.126 15.01 189.708 15.01ZM201.148 23.766V19.058C201.148 16.418 199.762 14.988 196.528 14.988C195.208 14.988 193.668 15.274 192.216 15.846L192.92 17.936C194.108 17.54 195.23 17.32 196 17.32C197.474 17.32 198.09 17.782 198.09 19.234V19.806H196.748C193.294 19.806 191.38 21.192 191.38 23.744C191.38 25.856 192.832 27.352 195.164 27.352C196.55 27.352 197.826 26.868 198.662 25.592C199.146 26.758 200.026 27.198 201.346 27.308L202.006 25.24C201.434 25.042 201.148 24.712 201.148 23.766ZM196.022 25.108C195.054 25.108 194.526 24.514 194.526 23.48C194.526 22.204 195.362 21.588 197.056 21.588H198.09V23.81C197.606 24.646 196.924 25.108 196.022 25.108ZM207.307 27.352C208.099 27.352 208.803 27.176 209.309 26.956L208.671 24.734C208.495 24.822 208.297 24.866 208.055 24.866C207.593 24.866 207.417 24.602 207.417 24.096V10.346L204.293 10.698V24.184C204.293 26.208 205.415 27.352 207.307 27.352ZM226.245 11.776H217.159V27H226.289V24.624H220.393V20.422H225.189V18.09H220.393V14.13H225.893L226.245 11.776ZM238.226 15.34H235.102V23.502C234.552 24.448 233.826 25.02 232.968 25.02C232.11 25.02 231.692 24.602 231.692 23.326V15.34H228.568V23.722C228.568 25.966 229.668 27.352 231.824 27.352C233.386 27.352 234.508 26.736 235.366 25.438L235.52 27H238.226V15.34ZM247.625 15.01C246.283 15.01 245.139 15.978 244.589 17.606L244.325 15.34H241.597V27H244.721V21.038C245.117 19.124 245.799 18.046 247.229 18.046C247.625 18.046 247.911 18.112 248.285 18.2L248.791 15.186C248.417 15.076 248.043 15.01 247.625 15.01ZM259.065 23.766V19.058C259.065 16.418 257.679 14.988 254.445 14.988C253.125 14.988 251.585 15.274 250.133 15.846L250.837 17.936C252.025 17.54 253.147 17.32 253.917 17.32C255.391 17.32 256.007 17.782 256.007 19.234V19.806H254.665C251.211 19.806 249.297 21.192 249.297 23.744C249.297 25.856 250.749 27.352 253.081 27.352C254.467 27.352 255.743 26.868 256.579 25.592C257.063 26.758 257.943 27.198 259.263 27.308L259.923 25.24C259.351 25.042 259.065 24.712 259.065 23.766ZM253.939 25.108C252.971 25.108 252.443 24.514 252.443 23.48C252.443 22.204 253.279 21.588 254.973 21.588H256.007V23.81C255.523 24.646 254.841 25.108 253.939 25.108ZM266.408 14.988C263.592 14.988 261.788 16.484 261.788 18.464C261.788 20.224 262.888 21.39 265.242 22.05C267.398 22.644 267.816 22.93 267.816 23.81C267.816 24.602 267.068 25.086 265.902 25.086C264.736 25.086 263.658 24.624 262.778 23.942L261.238 25.658C262.338 26.67 263.966 27.352 265.99 27.352C268.762 27.352 271.028 25.988 271.028 23.568C271.028 21.5 269.708 20.532 267.376 19.894C265.33 19.3 264.934 18.992 264.934 18.31C264.934 17.672 265.506 17.254 266.54 17.254C267.552 17.254 268.498 17.584 269.444 18.178L270.632 16.396C269.532 15.516 268.102 14.988 266.408 14.988ZM274.888 9.334C273.766 9.334 272.996 10.126 272.996 11.16C272.996 12.194 273.766 12.986 274.888 12.986C276.01 12.986 276.802 12.194 276.802 11.16C276.802 10.126 276.01 9.334 274.888 9.334ZM276.45 15.34H273.326V27H276.45V15.34ZM288.775 23.766V19.058C288.775 16.418 287.389 14.988 284.155 14.988C282.835 14.988 281.295 15.274 279.843 15.846L280.547 17.936C281.735 17.54 282.857 17.32 283.627 17.32C285.101 17.32 285.717 17.782 285.717 19.234V19.806H284.375C280.921 19.806 279.007 21.192 279.007 23.744C279.007 25.856 280.459 27.352 282.791 27.352C284.177 27.352 285.453 26.868 286.289 25.592C286.773 26.758 287.653 27.198 288.973 27.308L289.633 25.24C289.061 25.042 288.775 24.712 288.775 23.766ZM283.649 25.108C282.681 25.108 282.153 24.514 282.153 23.48C282.153 22.204 282.989 21.588 284.683 21.588H285.717V23.81C285.233 24.646 284.551 25.108 283.649 25.108Z" fill="white"/>
</svg>