<svg width="56" height="56" viewBox="0 0 56 56" fill="none" xmlns="http://www.w3.org/2000/svg">
    <path d="M19.8761 29.6976L17.9457 32.3761C16.8262 33.9295 16.6901 35.9685 17.5937 37.6521L19.8441 41.845L22.057 37.9688" fill="#6200EE" fill-opacity="0.6"/>
    <path d="M33.9744 37.9996L36.1558 41.845L38.4063 37.6521C39.3099 35.9686 39.1738 33.9295 38.0543 32.3761L36.1239 29.6976" fill="#6200EE" fill-opacity="0.6"/>
    <path d="M28 30.4868C30.371 30.4868 32.293 28.5998 32.293 26.2721C32.293 23.9444 30.371 22.0575 28 22.0575C25.6291 22.0575 23.707 23.9444 23.707 26.2721C23.707 28.5998 25.6291 30.4868 28 30.4868Z" fill="#6200EE" fill-opacity="0.6"/>
    <path d="M22.4323 39.6823H24.6815C24.6777 39.7469 24.6757 39.812 24.6757 39.8774C24.6757 42.5433 27.5285 43.8693 27.6499 43.9244C27.761 43.9749 27.8805 44 27.9999 44C28.1247 44 28.2497 43.9725 28.3647 43.9175C28.4855 43.8598 31.3242 42.4742 31.3242 39.8774C31.3242 39.812 31.3222 39.7469 31.3183 39.6823H33.5674C33.9469 39.6823 34.2785 39.4307 34.3743 39.0702C34.4926 38.6253 37.2694 28.1465 37.2694 25.7176C37.2694 22.6352 35.7809 19.4081 32.8454 16.1258C30.6991 13.7261 28.5783 12.2173 28.4891 12.1542C28.1982 11.9487 27.806 11.9485 27.5149 12.1541C27.4257 12.2172 25.3038 13.7259 23.1566 16.1255C20.2196 19.4076 18.7305 22.6348 18.7305 25.7173C18.7305 28.1461 21.5073 38.6253 21.6255 39.0701C21.7212 39.4307 22.0529 39.6823 22.4323 39.6823ZM29.6564 39.8774C29.6564 41.0304 28.5732 41.8713 27.9927 42.2393C27.4145 41.8825 26.3435 41.0616 26.3435 39.8774C26.3435 39.8116 26.3474 39.7464 26.3551 39.6823H29.6448C29.6525 39.7464 29.6564 39.8116 29.6564 39.8774ZM28.0017 13.852C28.7385 14.4292 30.2034 15.6501 31.6521 17.281H24.3494C25.799 15.65 27.2647 14.4291 28.0017 13.852ZM23.0215 18.9184H32.9795C34.4304 20.8977 35.6016 23.2573 35.6016 25.7176C35.6016 27.4458 33.7979 34.6966 32.9217 38.0449H23.078C22.2019 34.6966 20.3983 27.4458 20.3983 25.7174C20.3983 23.2571 21.5699 20.8976 23.0215 18.9184Z" fill="#6200EE"/>
    <rect x="0.75" y="0.75" width="54.5" height="54.5" rx="12.25" stroke="black" stroke-opacity="0.08" stroke-width="1.5"/>
</svg>